<svg xmlns="http://www.w3.org/2000/svg" width="56" height="56"><path fill="#0052B4" d="M5.788 10.954a27.91 27.91 0 00-4.823 9.742H15.53l-9.742-9.742zm49.247 9.742a27.916 27.916 0 00-4.824-9.743l-9.742 9.743h14.566zM.965 35.305a27.893 27.893 0 004.823 9.742l9.743-9.742H.965zM45.047 5.788A27.91 27.91 0 0035.305.965V15.53l9.742-9.742zM10.953 50.212a27.9 27.9 0 009.743 4.824V40.469l-9.743 9.743zM20.696.965a27.914 27.914 0 00-9.743 4.823l9.743 9.743V.965zm14.609 54.071a27.895 27.895 0 009.742-4.824l-9.742-9.743v14.567zm5.164-19.731l9.742 9.743a27.908 27.908 0 004.824-9.743H40.469z"/><path fill="#D80027" d="M55.764 24.348H31.652V.237a28.238 28.238 0 00-7.304 0v24.11H.237a28.253 28.253 0 000 7.305h24.11v24.111a28.23 28.23 0 007.305.001V31.652h24.111a28.238 28.238 0 00.001-7.304z"/><path fill="#D80027" d="M35.305 35.305L47.799 47.8a28.003 28.003 0 001.646-1.798L38.748 35.305h-3.443zm-14.611 0L8.199 47.8a28.297 28.297 0 001.798 1.646l10.697-10.697v-3.444zm.001-14.609L8.201 8.2a27.738 27.738 0 00-1.646 1.798l10.697 10.697 3.443.001zm14.61 0L47.799 8.2a27.986 27.986 0 00-1.797-1.646L35.305 17.252v3.444z"/></svg>