<svg xmlns="http://www.w3.org/2000/svg" xmlns:xlink="http://www.w3.org/1999/xlink" width="56" height="56"><path d="M6.773 28.053h5.282v.958H6.773zm.002 3.831l3.168-.958v-.958l-3.168.958z" fill="#C8414B"/><defs><circle id="a" cx="28" cy="28.018" r="28"/></defs><clipPath id="b"><use xlink:href="#a" overflow="visible"/></clipPath><path clip-path="url(#b)" fill="#C8414B" d="M0 .018h58.465V56H0z"/><path clip-path="url(#b)" fill="#FFD250" d="M0 11.804h60.59v32.41H0z"/><g clip-path="url(#b)"><path fill="#C8414B" d="M28.536 27.614l1.059-4.318c.098-.397-.237-.775-.686-.775h-.746c-.45 0-.784.378-.686.775l1.059 4.318z"/><path fill="#F5F5F5" d="M27.286 25.35h2.497v9.62h-2.497z"/><path fill="#FAB446" d="M26.663 24.218h3.747v1.132h-3.747z"/><path d="M24.164 27.614h6.244v1.132h-6.244zm6.245 4.526l-3.746-1.131v-1.133l3.746 1.133zM9.802 27.614l1.059-4.318c.098-.397-.235-.775-.686-.775h-.746c-.448 0-.783.378-.686.775l1.059 4.318z" fill="#C8414B"/><path fill="#F5F5F5" d="M14.174 24.218c-.69 0-1.25.507-1.25 1.133v7.357c0 1.375 1.416 3.961 6.245 3.961s6.245-2.588 6.245-3.961v-7.357c0-.625-.559-1.133-1.25-1.133h-9.99z"/><path d="M19.169 29.876h-6.245v-4.468c0-.658.532-1.19 1.189-1.19h5.056v5.658zm0 0h6.245v2.688a2.973 2.973 0 01-2.973 2.973h-.3a2.972 2.972 0 01-2.973-2.973v-2.688h.001z" fill="#C8414B"/><path fill="#FAB446" d="M12.924 29.876h6.245v2.688a2.972 2.972 0 01-2.973 2.973h-.3a2.973 2.973 0 01-2.973-2.973v-2.688z"/><path d="M17.921 34.958v-5.082h-1.249v5.604a3.258 3.258 0 001.249-.522zm-2.498.521v-5.604h-1.249v5.082c.364.251.784.437 1.249.522z" fill="#C8414B"/><path fill="#FFB441" d="M14.173 27.614h3.746v1.132h-3.746z"/><g fill="#FAB446"><path d="M14.173 25.35h3.746v1.131h-3.746z"/><path d="M14.799 26.022h2.497v2.05h-2.497z"/></g><path fill="#F5F5F5" d="M8.554 25.35h2.497v9.62H8.554z"/><path d="M7.929 34.405h3.746v1.131H7.929zm0-10.187h3.746v1.132H7.929z" fill="#FAB446"/><path fill="#5064AA" d="M7.304 35.538h4.995v1.131H7.304z"/><path fill="#FAB446" d="M27.286 34.405h3.747v1.131h-3.747z"/><path fill="#5064AA" d="M26.039 35.538h4.995v1.131h-4.995z"/><path fill="#FAB446" d="M15.423 23.086h7.492v1.132h-7.492z"/><path fill="#FFB441" d="M18.544 19.692h1.25v3.396h-1.25z"/><g fill="#F5F5F5"><path d="M17.921 21.389c-1.034 0-1.874-.762-1.874-1.698s.84-1.697 1.874-1.697c1.032 0 1.873.761 1.873 1.697-.001.936-.841 1.698-1.873 1.698zm0-2.264c-.345 0-.625.254-.625.566s.28.566.625.566c.344 0 .623-.254.623-.566 0-.313-.279-.566-.623-.566z"/><path d="M20.417 21.389c-1.032 0-1.873-.762-1.873-1.698s.841-1.697 1.873-1.697c1.034 0 1.874.761 1.874 1.697s-.84 1.698-1.874 1.698zm0-2.264c-.344 0-.623.254-.623.566s.279.566.623.566c.345 0 .625-.254.625-.566 0-.313-.28-.566-.625-.566z"/><path d="M22.915 22.52c-1.032 0-1.873-.761-1.873-1.697 0-.937.841-1.698 1.873-1.698 1.034 0 1.874.761 1.874 1.698 0 .936-.84 1.697-1.874 1.697zm0-2.263c-.344 0-.624.254-.624.566s.28.566.624.566c.345 0 .625-.254.625-.566s-.28-.566-.625-.566zm-7.492 2.263c-1.034 0-1.874-.761-1.874-1.697 0-.937.84-1.698 1.874-1.698 1.032 0 1.873.761 1.873 1.698 0 .936-.841 1.697-1.873 1.697zm0-2.263c-.345 0-.625.254-.625.566s.28.566.625.566c.344 0 .624-.254.624-.566s-.28-.566-.624-.566z"/></g><path fill="#FAB446" d="M22.915 32.14v.568c0 .311-.279.564-.624.564-.344 0-.624-.254-.624-.564v-.568h1.248m1.249-1.131h-3.747v1.699c0 .936.841 1.697 1.874 1.697s1.873-.762 1.873-1.697v-1.699z"/><path fill="#FFA0D2" d="M22.352 28.746h-.12a1.19 1.19 0 01-1.189-1.19v-1.018c0-.656.532-1.188 1.189-1.188h.12c.655 0 1.188.532 1.188 1.188v1.018a1.19 1.19 0 01-1.188 1.19z"/><ellipse fill="#5064AA" cx="19.169" cy="29.878" rx="1.873" ry="1.697"/><path fill="#FAB446" d="M18.544 17.427h1.25v3.396h-1.25z"/><path fill="#C8414B" d="M15.423 23.086l-1.249-1.132.731-.664c1.13-1.024 2.664-1.6 4.264-1.6s3.133.576 4.264 1.6l.731.664-1.249 1.132h-7.492z"/><g fill="#FFD250"><ellipse cx="19.169" cy="21.954" rx=".624" ry=".566"/><ellipse cx="16.672" cy="21.954" rx=".624" ry=".566"/><ellipse cx="21.666" cy="21.954" rx=".625" ry=".566"/></g><path d="M7.929 27.614h6.244v1.132H7.929zm0 4.526l3.746-1.131v-1.133l-3.746 1.133z" fill="#C8414B"/></g></svg>