<svg xmlns="http://www.w3.org/2000/svg" width="56" height="56"><path fill="#FFF" d="M56 28c0-3.425-.616-6.706-1.742-9.74L28 17.045 1.742 18.26C.616 21.294 0 24.575 0 28s.616 6.706 1.742 9.74L28 38.955l26.258-1.217A27.916 27.916 0 0056 28z"/><path fill="#0052B4" d="M28 56c12.04 0 22.303-7.598 26.259-18.26H1.742C5.698 48.4 15.962 56 28 56z"/><path fill="#D80027" d="M1.742 18.26H54.26C50.303 7.599 40.04 0 28.001 0 15.96 0 5.698 7.598 1.742 18.26z"/><path fill="#338AF3" d="M35.303 19.478h-4.869l.812-6.087 3.247-2.434 3.246 2.434v4.87l-2.436 1.217zm-14.607 0h4.87l-.812-6.087-3.246-2.434-3.246 2.434v4.87l2.434 1.217z"/><path fill="#0052B4" d="M31.247 19.478h-6.493v-6.087L28 10.957l3.247 2.434v6.087z"/><path fill="#FFF" d="M18.262 18.261v13.391a9.73 9.73 0 003.916 7.802l1.704-.427 2.15 2.164a9.763 9.763 0 003.927.002l2.455-2.043 1.41.3a9.725 9.725 0 003.916-7.798v-13.39l-19.478-.001z"/><path fill="#D80027" d="M22.157 18.26h-3.895v3.896h3.895V18.26zm7.793 0h-3.895v3.896h3.895V18.26zm7.79 0h-3.896v3.896h3.896V18.26z"/><path fill="#D80027" d="M26.052 22.156h-3.896v3.896h3.896v-3.896zm7.794 0H29.95v3.896h3.896v-3.896z"/><path fill="#D80027" d="M22.157 26.05h-3.895v3.896h3.895V26.05zm3.895 3.897h-3.896v3.895h3.896v-3.895zm3.898-3.897h-3.895v3.896h3.895V26.05zm7.79 0h-3.896v3.896h3.896V26.05zm-3.894 3.897H29.95v3.895h3.896v-3.895zm-3.896 3.895h-3.895v3.896h3.895v-3.896zm-7.794.001h-3.644a9.712 9.712 0 001.892 3.896h1.752v-3.896zm11.688 3.895h1.752a9.714 9.714 0 001.893-3.896h-3.645v3.896zm-11.688 0v1.699a9.69 9.69 0 003.896 1.758v-3.457h-3.896zm7.794 0v3.457a9.702 9.702 0 003.896-1.758v-1.699H29.95z"/></svg>