<svg xmlns="http://www.w3.org/2000/svg" width="56" height="56"><path fill="#FFF" d="M28 56c15.464 0 28-12.536 28-28S43.464 0 28 0 0 12.536 0 28s12.536 28 28 28z"/><path fill="#0052B4" d="M28 56c15.464 0 28-12.536 28-28 0-3.425-.616-6.706-1.742-9.74H1.742A27.944 27.944 0 000 28c0 15.464 12.536 28 28 28z"/><path fill="#D80027" d="M28 56c12.04 0 22.303-7.6 26.259-18.26H1.742C5.698 48.4 15.962 56 28 56z"/><path fill="#FFF" d="M7.242 15.826v13.968c0 7.944 10.38 10.38 10.38 10.38s10.38-2.436 10.38-10.38V15.826H7.242z"/><path fill="#D80027" d="M9.676 15.826v13.968c0 .933.207 1.813.617 2.64h14.655c.41-.826.618-1.707.618-2.64V15.826H9.676z"/><path fill="#F0F0F0" d="M22.49 25.565h-3.653V23.13h2.435v-2.434h-2.435V18.26h-2.435v2.435h-2.434v2.434h2.434v2.435H12.75V28h3.652v2.436h2.435V28h3.652l.001-2.435z"/><path fill="#0052B4" d="M13.614 35.832c1.569.986 3.18 1.559 4.006 1.813.825-.254 2.437-.826 4.006-1.813 1.582-.994 2.692-2.131 3.322-3.398a4.24 4.24 0 00-2.458-.781c-.334 0-.657.039-.969.111a4.26 4.26 0 00-7.802 0 4.288 4.288 0 00-.968-.111c-.916 0-1.763.289-2.458.781.63 1.268 1.739 2.404 3.32 3.398h.001z"/></svg>