<svg xmlns="http://www.w3.org/2000/svg" width="56" height="56" fill="none"><path fill="#fff" d="M28 56c15.464 0 28-12.536 28-28S43.464 0 28 0 0 12.536 0 28s12.536 28 28 28z"/><path fill="#0052B4" d="M54.258 18.26h-29.91v-7.304H9.739v7.305H1.742A27.926 27.926 0 000 28c0 3.425.616 6.706 1.742 9.74L28 40.173l26.258-2.435A27.916 27.916 0 0056 28c0-3.425-.616-6.706-1.742-9.74z"/><path fill="#D80027" d="M28 56c12.04 0 22.303-7.598 26.259-18.26H1.742C5.698 48.401 15.962 56 28.001 56z"/><path fill="#fff" d="M9.738 18.26v2.435c0 5.592 7.305 7.305 7.305 7.305s7.304-1.713 7.304-7.305v-2.434l-2.435 2.435-4.87-3.652-4.869 3.652-2.435-2.435z"/><circle cx="28" cy="28" r="27.5" stroke="#EEF0F8"/></svg>