<svg xmlns="http://www.w3.org/2000/svg" width="56" height="56"><path fill="#41479B" d="M1.742 18.261A27.928 27.928 0 000 28.001c0 3.424.616 6.705 1.742 9.737L28 40.174l26.258-2.436C55.384 34.706 56 31.425 56 28s-.616-6.706-1.742-9.739L28 15.826 1.742 18.261z"/><path fill="#FF4B55" d="M28 0C15.962 0 5.698 7.598 1.742 18.26H54.26C50.303 7.599 40.04 0 28 0z"/><path fill="#F5F5F5" d="M28 56c12.04 0 22.303-7.598 26.259-18.26H1.742C5.698 48.4 15.962 56 28 56z"/><path fill="#FFE15A" d="M23.634 18.212h-9.525l-.397-2.38h10.319z"/><path fill="#FFD350" d="M14.01 17.618l.099.594h9.525l.099-.594z"/><g fill="#FFE15A"><path d="M18.673 10.275h.397v1.587h-.397z"/><path d="M18.277 10.672h1.19v.397h-1.19zm5.388 5.953a.396.396 0 01-.372-.532l.84-2.32a.417.417 0 00-.027-.347.368.368 0 00-.244-.186c-1.024-.218-3.012-.584-4.799-.584h-.383c-1.787 0-3.774.366-4.799.584a.367.367 0 00-.243.185.42.42 0 00-.027.347l.841 2.32a.397.397 0 01-.746.271l-.841-2.32a1.214 1.214 0 01.079-1.003c.164-.296.446-.507.771-.576 1.056-.225 3.105-.602 4.965-.602h.383c1.86 0 3.909.377 4.964.601.327.07.608.28.772.577.17.307.199.672.08 1.003l-.841 2.32a.397.397 0 01-.373.262z"/><path d="M18.874 16.278a.397.397 0 01-.397-.397v-3.225a.396.396 0 01.793 0v3.225c0 .22-.177.397-.396.397z"/><path d="M21.617 16.625a.397.397 0 01-.389-.478l.481-2.32c.062-.302-.036-.567-.091-.614-.55-.202-1.654-.558-2.637-.558h-.22c-.982 0-2.086.356-2.657.568-.035.036-.133.301-.07.603l.481 2.32a.399.399 0 01-.308.47.4.4 0 01-.47-.308l-.481-2.32c-.12-.579.064-1.319.571-1.508.759-.282 1.883-.618 2.934-.618h.22c1.051 0 2.176.336 2.934.618.507.189.691.93.571 1.509l-.481 2.32a.396.396 0 01-.388.316z"/></g><path fill="#FFD350" d="M13.812 16.427h10.12l.099-.595H13.712z"/><path fill="#FF4B55" d="M11.331 18.212a.397.397 0 00-.397.397v13.859c0 4.4 3.554 7.97 7.938 7.97s7.938-3.569 7.938-7.97V18.609a.397.397 0 00-.397-.397H11.331z"/><path fill="#F5F5F5" d="M19.666 31.309l.793-1.982-1.587.396-1.587-.396.794 1.982-1.984 6.748s1.19.795 2.778.795c1.587 0 2.778-.795 2.778-.795l-1.985-6.748z"/><path fill="#FFE15A" d="M15.997 32.908l-.7.176 1.54-2.772-.693-.385-1.872 3.367h-1.751v.794h.854l-1.101.881.496.62.935-.749-.37 1.106.754.251.724-2.174 1.377-.343z"/><path fill="#F5F5F5" d="M16.094 22.182l-1.812-.906a.795.795 0 01-.416-.902l.103-.41a.45.45 0 00-.789-.391 6.627 6.627 0 00-1.452 4.14v8.391s1.657-.332 3.154-2.509a1.56 1.56 0 011.21-.662l-.792 2.376 1.588.398 1.389-1.653-2.183-7.872z"/><path fill="#FFE15A" d="M21.746 32.908l.7.176-1.54-2.772.694-.385 1.871 3.367h1.751v.794h-.853l1.101.881-.496.62-.935-.749.369 1.106-.754.251-.724-2.174-1.376-.343z"/><path fill="#F5F5F5" d="M21.65 22.182l1.812-.906a.793.793 0 00.415-.902l-.103-.41a.45.45 0 01.789-.391 6.628 6.628 0 011.453 4.14v8.391s-1.657-.332-3.155-2.509a1.559 1.559 0 00-1.209-.662l.792 2.376-1.587.398-1.39-1.653 2.183-7.872z"/><path d="M16.491 19.403h-1.985l.596.794 1.389.397-.794.397h1.191zm4.762 0h1.985l-.596.794-1.389.397.794.397h-1.191z" fill="#FFE15A"/><path fill="#F5F5F5" d="M21.532 19.092l-1.867.312-.794 1.588-.794-1.588-1.867-.312a.266.266 0 00-.281.381l.958 1.915-.794.794h5.556l-.793-.794.957-1.915a.265.265 0 00-.281-.381z"/><circle fill="#FFBE50" cx="18.872" cy="16.005" r=".595"/><ellipse fill="#41479B" cx="18.863" cy="17.427" rx=".471" ry=".331"/><ellipse fill="#FF4B55" cx="16.516" cy="17.427" rx=".47" ry=".331"/><g fill="#41479B"><ellipse cx="14.167" cy="17.427" rx=".471" ry=".331"/><ellipse cx="23.561" cy="17.427" rx=".47" ry=".331"/></g><ellipse fill="#FF4B55" cx="21.211" cy="17.427" rx=".47" ry=".331"/><g fill="#FFBE50"><circle cx="21.629" cy="16.005" r=".595"/><circle cx="23.807" cy="16.005" r=".595"/><circle cx="16.116" cy="16.005" r=".595"/><circle cx="13.938" cy="16.005" r=".595"/></g><path fill="#41479B" d="M19.555 12.656a.785.785 0 00.11-.396.794.794 0 00-1.588 0c0 .145.042.279.11.396h1.368z"/><path fill="#FF4B55" d="M18.872 30.317a2.98 2.98 0 01-2.976-2.977v-5.358h5.953v5.358a2.982 2.982 0 01-2.977 2.977z"/><path fill="#A54B50" d="M21.65 22.182v5.159c0 1.535-1.244 2.777-2.778 2.777s-2.778-1.242-2.778-2.777v-5.159h5.556m.397-.397h-6.35v5.556c0 1.752 1.424 3.176 3.175 3.176s3.175-1.424 3.175-3.176v-5.556z"/><g fill="#F5F5F5"><path d="M18.276 30.054a2.847 2.847 0 001.19 0v-7.873h-1.19v7.873z"/><path d="M16.094 25.456h5.556v1.19h-5.556z"/></g></svg>