<svg width="160" height="160" fill="none" xmlns="http://www.w3.org/2000/svg"><circle cx="80" cy="80" r="80" fill="#fff"/><path d="M129 80.5c0 26.786-21.714 48.5-48.5 48.5S32 107.286 32 80.5 53.714 32 80.5 32 129 53.714 129 80.5z" stroke="#191919" stroke-width="2"/><rect x="60" y="64" width="40" height="26" rx="2" stroke="#191919" stroke-width="1.5"/><path stroke="#191919" stroke-width="1.5" d="M74 90h12v3H74z"/><path d="M92 96v.75a.75.75 0 00.712-.987L92 96zm-24 0l-.712-.237a.75.75 0 00.712.987V96zm23.912-.265l-.712.237.712-.237zM71.883 93.75h16.234v-1.5H71.883v1.5zM91.2 95.972l.088.265 1.424-.474-.089-.265-1.423.474zm.8-.722H68v1.5h24v-1.5zm-23.288.987l.088-.265-1.423-.474-.088.265 1.422.474zm19.405-2.487a3.25 3.25 0 013.083 2.222l1.423-.474a4.75 4.75 0 00-4.506-3.248v1.5zm-16.234-1.5a4.75 4.75 0 00-4.506 3.248l1.423.474a3.25 3.25 0 013.083-2.222v-1.5z" fill="#191919"/><path stroke="#000" stroke-width="1.5" d="M88.28 67.72l8 8m-12.75-8.25l13 13"/><path d="M145.748 86.77l-5.505-.468 5.839-3.455.124-1.457-7.972-.678-.129 1.52 5.505.468-5.839 3.455-.123 1.457 7.971.678.129-1.52zm-9.682 7.97c-.695 2.493.65 4.646 2.889 5.271 2.24.626 4.482-.526 5.178-3.019.699-2.504-.622-4.65-2.862-5.276-2.239-.625-4.506.52-5.205 3.025zm1.349.377c.447-1.601 1.987-2.236 3.419-1.836 1.445.404 2.397 1.734 1.95 3.335-.443 1.59-1.947 2.234-3.392 1.83-1.432-.4-2.421-1.74-1.977-3.329zm-5.016 9.78c-.899 1.8-.653 3.516 1.416 4.55l4.361 2.179.704-1.409-4.205-2.101c-1.33-.665-1.509-1.621-1.023-2.594.48-.961 1.358-1.403 2.688-.738l4.205 2.101.704-1.409-4.361-2.179c-2.069-1.034-3.589-.201-4.489 1.6zm-6.197 10.512l-1.005 1.371 8.322 2.179.946-1.29-4.583-7.281-1.005 1.371 1.098 1.611-1.907 2.601-1.866-.562zm4.482-.977l1.977 2.906-3.366-1.01 1.389-1.896zm-13.754 14.062c.472.165.983.122 1.509-.063-.748.943-1.026 2.052-.248 3.014.904 1.118 2.451.864 3.549-.024l2.839-2.295-5.03-6.221-1.225.99 2.122 2.624-.195.158c-.62.485-1.365.895-2.175.649-.844-.249-1.643-.938-2.416-1.277l-1.467 1.186c.975.272 1.771.899 2.737 1.259zm4.367 1.742c-.778.629-1.496.615-1.968.032-.456-.564-.352-1.211.368-1.792l1.409-1.14 1.493 1.847-1.302 1.053zm-10.785 7.129l.641 1.131 4.895-2.771-3.942-6.962-4.895 2.771.641 1.132 3.524-1.996 1.035 1.828-2.981 1.687.592 1.044 2.98-1.687 1.035 1.827-3.525 1.996zm-10.315-2.899c-.914.339-1.635.913-2.117 1.625l1.211.858c.292-.509.76-.936 1.381-1.166 1.535-.569 2.941.309 3.454 1.692.522 1.406.02 2.966-1.515 3.535-.621.23-1.25.224-1.802.029l-.36 1.44c.831.225 1.747.178 2.661-.161 2.402-.891 3.353-3.217 2.544-5.397-.813-2.191-3.055-3.346-5.457-2.455zm-6.579 3.593l1.298 6.534 1.545-.307-1.559-7.846-5.076 1.008.261 1.312 3.531-.701zm-12.138.177l-1.698.072 3.5 7.858 1.598-.068 2.82-8.127-1.699.073-.57 1.863-3.223.137-.727-1.808zm3.564 2.889l-1.033 3.359-1.315-3.26 2.348-.099zm-16.177 4.189l3.665-5.664 1.887 6.482 1.385.204 1.167-7.914-1.521-.224-.682 4.625-1.47-4.942-.977-.144-2.834 4.307.682-4.625-1.52-.224-1.168 7.915 1.386.204zm-9.567-1.738c-1.147-.396-1.957-.041-2.282.786l.791.273c.174-.35.591-.563 1.241-.338.662.228.847.649.768 1.032l.791.274c.255-.852-.164-1.631-1.31-2.027zm.677-8.891l-1.607-.555.377 8.594 1.512.523 5.602-6.529-1.607-.555-1.214 1.524-3.048-1.053-.015-1.949zm2.257 3.994l-2.192 2.747-.029-3.515 2.221.768zm-20.296-4.515l5.315 3.52.732-1.104-2.011-1.333 3.686-5.565-1.313-.869-3.686 5.565-1.99-1.319-.733 1.105zm-7.218-5.951l5.753-2.967-2.454 5.991 1.271 1.165 2.982-8.119-.996-.912-7.828 3.677 1.271 1.165zM24.651 105.13c-.302-.713-1.11-1.05-1.8-.758a1.384 1.384 0 00-.721 1.825 1.382 1.382 0 001.807.742c.69-.292 1.011-1.106.714-1.809zM14.158 76.551l5.52.235-5.687 3.7-.062 1.46 7.992.34.065-1.524-5.52-.234 5.687-3.7.062-1.46-7.993-.34-.064 1.523zm9.333-8.409c.591-2.519-.843-4.614-3.107-5.145-2.263-.532-4.456.713-5.046 3.232-.594 2.531.816 4.621 3.08 5.152 2.263.531 4.48-.708 5.073-3.239zm-1.363-.32c-.38 1.619-1.892 2.317-3.34 1.977-1.46-.342-2.467-1.631-2.087-3.25.376-1.606 1.852-2.313 3.312-1.97 1.448.34 2.492 1.637 2.115 3.243zm4.54-9.862c.819-1.838.496-3.542-1.617-4.482l-4.453-1.983-.641 1.44 4.294 1.91c1.359.606 1.58 1.553 1.138 2.546-.437.982-1.294 1.463-2.653.858l-4.294-1.912-.64 1.44 4.453 1.982c2.113.94 3.595.04 4.413-1.799zm5.672-10.706l.944-1.414-8.41-1.812-.888 1.33 4.897 7.073.944-1.414-1.167-1.56 1.79-2.683 1.89.48zm-4.435 1.172l-2.103-2.817 3.408.862-1.305 1.955zm13.042-14.623c-.479-.145-.988-.08-1.505.128.707-.975.935-2.094.116-3.021-.952-1.078-2.486-.756-3.545.179l-2.735 2.416 5.297 5.996 1.18-1.043-2.234-2.53.187-.165c.598-.512 1.325-.954 2.145-.744.855.212 1.682.866 2.469 1.171l1.414-1.25c-.986-.229-1.808-.82-2.79-1.137zm-4.439-1.55c.75-.662 1.468-.68 1.965-.118.48.544.404 1.194-.29 1.807l-1.358 1.2-1.572-1.78 1.255-1.11zm10.252-7.511l-.693-1.1-4.757 3.003 4.27 6.765 4.756-3.002-.693-1.1-3.425 2.162-1.121-1.776 2.896-1.828-.64-1.015-2.897 1.828-1.12-1.776 3.425-2.161zm10.39 2.388c.898-.379 1.592-.985 2.042-1.718l-1.248-.802a2.64 2.64 0 01-1.328 1.227c-1.508.637-2.952-.177-3.526-1.535-.584-1.382-.153-2.962 1.355-3.6a2.63 2.63 0 011.8-.11l.293-1.454c-.84-.188-1.752-.1-2.65.28-2.36.998-3.205 3.364-2.3 5.505.911 2.153 3.202 3.206 5.562 2.208zm6.68-4.014l-1.596-6.47-1.529.378 1.916 7.767 5.025-1.24-.32-1.298-3.496.863zm11.911-.722l1.694-.15-3.86-7.69-1.593.143-2.441 8.248 1.693-.15.485-1.888 3.212-.286.81 1.773zm-3.693-2.721l.877-3.404 1.464 3.196-2.34.208zm16.013-4.963l-3.4 5.826-2.184-6.388-1.393-.14-.8 7.96 1.53.153.467-4.651 1.697 4.869.982.099 2.632-4.434-.468 4.651 1.53.154.8-7.96-1.392-.14zm9.591 1.24c1.163.344 1.956-.047 2.244-.887l-.803-.238c-.158.358-.565.59-1.225.394-.671-.198-.875-.61-.813-.996l-.803-.238c-.216.862.237 1.622 1.4 1.966zm-.275 8.913l1.63.482-.765-8.568-1.534-.454-5.3 6.776 1.63.482 1.144-1.578 3.093.914.102 1.946zm-2.435-3.887l2.065-2.844.188 3.51-2.253-.666zm20.572 3.56l-5.464-3.283-.683 1.136 2.068 1.242-3.437 5.722 1.35.811 3.437-5.722 2.047 1.23.682-1.136zm7.44 5.535l-5.607 3.236 2.168-6.1-1.325-1.104-2.594 8.251 1.037.864 7.646-4.043-1.325-1.104zm11.326 22.785c.333.7 1.155 1 1.832.677a1.385 1.385 0 00.639-1.855 1.382 1.382 0 00-1.838-.661c-.677.322-.961 1.15-.633 1.839z" fill="#000"/></svg>